<?xml version="1.0" standalone="no"?>
<!DOCTYPE svg PUBLIC "-//W3C//DTD SVG 20010904//EN"
 "http://www.w3.org/TR/2001/REC-SVG-20010904/DTD/svg10.dtd">
<svg version="1.0" xmlns="http://www.w3.org/2000/svg"
 width="768.000000pt" height="768.000000pt" viewBox="0 0 768.000000 768.000000"
 preserveAspectRatio="xMidYMid meet">
<metadata>
Created by potrace 1.10, written by Peter Selinger 2001-2011
</metadata>
<g transform="translate(0.000000,768.000000) scale(0.100000,-0.100000)"
fill="#1e90ff" stroke="none">
<path d="M1432 3827 l3 -2387 588 0 c323 0 592 0 597 0 7 0 10 585 10 1791 0
986 1 1793 3 1795 3 4 3448 3 3550 0 l38 -1 0 593 0 592 -2396 3 -2395 2 2
-2388z m4630 2293 c15 0 36 -10 48 -22 20 -21 20 -33 20 -467 0 -245 -3 -456
-6 -468 -4 -13 -14 -23 -23 -23 -9 0 -25 -7 -35 -15 -17 -13 -239 -15 -1704
-15 -1672 0 -1685 0 -1717 -20 -18 -11 -45 -37 -60 -57 -26 -33 -29 -46 -36
-162 -5 -69 -8 -831 -8 -1692 -1 -1768 6 -1631 -77 -1643 -26 -3 -233 -6 -461
-6 -468 0 -466 0 -476 68 -4 21 -7 1034 -7 2250 -1 1812 1 2217 12 2239 l13
28 2225 5 c1224 3 2234 4 2245 3 11 -2 32 -3 47 -3z"/>
<path d="M3832 3233 l3 -598 60 1 c33 0 301 2 595 3 l535 2 2 -597 c1 -328 6
-601 10 -605 5 -5 47 -2 93 6 47 8 105 15 130 15 25 1 56 7 70 15 14 8 39 14
56 15 16 0 39 7 50 15 10 8 27 15 37 15 17 0 50 14 97 41 8 5 21 11 28 14 6 3
18 7 25 10 19 8 46 26 130 89 149 111 268 250 337 396 12 25 26 52 31 60 5 8
11 20 13 25 1 6 9 26 15 45 7 19 16 51 20 70 4 19 13 45 19 57 7 12 12 41 12
65 0 24 5 61 10 83 5 22 10 332 10 693 l2 653 -1196 5 -1196 4 2 -597z m2269
477 l30 -29 -1 -606 c-1 -654 -4 -688 -55 -820 -15 -38 -29 -80 -32 -92 -3
-12 -11 -28 -19 -34 -8 -6 -14 -18 -14 -25 0 -21 -38 -79 -52 -79 -7 0 -13
-10 -13 -23 0 -12 -5 -26 -10 -30 -6 -4 -28 -28 -49 -54 -21 -27 -45 -48 -52
-48 -8 0 -14 -4 -14 -9 0 -5 -32 -41 -72 -80 -58 -57 -76 -69 -95 -65 -18 5
-23 2 -23 -14 0 -16 -9 -24 -35 -31 -19 -5 -49 -21 -66 -35 -17 -14 -41 -26
-53 -26 -12 0 -31 -7 -42 -15 -10 -8 -30 -15 -44 -15 -15 0 -31 -5 -37 -11
-13 -13 -159 -32 -190 -24 -13 3 -23 11 -23 17 0 6 -7 19 -16 29 -14 16 -16
74 -18 513 l-1 494 -30 43 c-58 83 -29 79 -586 82 -559 3 -548 2 -561 72 -4
22 -7 228 -7 457 l-1 417 26 30 26 31 446 3 c246 1 718 3 1050 5 l604 2 29
-30z"/>
</g>
</svg>
